# xmcd
#
# Track frame offsets: 
#        150
#        21586
#        36102
#        53496
#        72174
#        98185
#        112011
#        135285
#        155417
#        174414
#        204386
#        223501
#        243973
#
# Disc length: 3557 seconds
#
# Revision: 0
# Processed by: cddbd v1.5.2PL0 Copyright (c) Steve Scherf et al.
# Submitted via: ExactAudioCopy v0.95b4
#
DISCID=ac0de30d
DTITLE=Ty Curtis Band - Down On My Luck
DYEAR=2008
DGENRE=Blues
TTITLE0=Cherry City Boogie
TTITLE1=Been Down That Road
TTITLE2=Bluer Than Blue
TTITLE3=Give It Up
TTITLE4=Down On My Luck
TTITLE5=Comin' Back Baby
TTITLE6=I'm Going Away
TTITLE7=How Can I Get Thru
TTITLE8=What You Gonna Do
TTITLE9=Lose Yourself
TTITLE10=Treat Me This Way
TTITLE11=Done Me So Wrong
TTITLE12=Out In The Country
EXTD=
EXTT0=
EXTT1=
EXTT2=
EXTT3=
EXTT4=
EXTT5=
EXTT6=
EXTT7=
EXTT8=
EXTT9=
EXTT10=
EXTT11=
EXTT12=
PLAYORDER=
